HIERARCHY
ROOT Hips
{
 OFFSET 0.000000 0.000000 0.000000
 CHANNELS 6 Xposition Yposition Zposition Yrotation Xrotation Zrotation
 JOINT Chest
 {
  OFFSET 0.000000 9.585900 0.002600
  CHANNELS 3 Yrotation Xrotation Zrotation
  JOINT Chest2
  {
   OFFSET 0.000000 9.601200 -0.005300
   CHANNELS 3 Yrotation Xrotation Zrotation
   JOINT Chest3
   {
    OFFSET 0.000000 9.561800 0.000000
    CHANNELS 3 Yrotation Xrotation Zrotation
    JOINT Chest4
    {
     OFFSET 0.000000 9.552100 0.000000
     CHANNELS 3 Yrotation Xrotation Zrotation
     JOINT Neck
     {
      OFFSET 0.000000 14.453000 0.000000
      CHANNELS 3 Yrotation Xrotation Zrotation
      JOINT Head
      {
       OFFSET 0.000000 8.936500 -0.011300
       CHANNELS 3 Yrotation Xrotation Zrotation
       End Site
       {
        OFFSET 0.000000 17.073600 -0.006000
       }
      }
     }
     JOINT RightCollar
     {
      OFFSET -2.921100 9.558500 0.000000
      CHANNELS 3 Yrotation Xrotation Zrotation
      JOINT RightShoulder
      {
       OFFSET -13.519700 0.000000 0.000000
       CHANNELS 3 Yrotation Xrotation Zrotation
       JOINT RightElbow
       {
        OFFSET 0.000000 -29.696600 0.000000
        CHANNELS 3 Yrotation Xrotation Zrotation
        JOINT RightWrist
        {
         OFFSET 0.000000 -24.004700 0.000000
         CHANNELS 3 Yrotation Xrotation Zrotation
         End Site
         {
          OFFSET 0.000000 -17.728500 0.000000
         }
        }
       }
      }
     }
     JOINT LeftCollar
     {
      OFFSET 2.921100 9.558500 0.000000
      CHANNELS 3 Yrotation Xrotation Zrotation
      JOINT LeftShoulder
      {
       OFFSET 13.519700 0.000000 0.000000
       CHANNELS 3 Yrotation Xrotation Zrotation
       JOINT LeftElbow
       {
        OFFSET 0.000000 -29.696600 0.000000
        CHANNELS 3 Yrotation Xrotation Zrotation
        JOINT LeftWrist
        {
         OFFSET 0.000000 -24.004700 0.000000
         CHANNELS 3 Yrotation Xrotation Zrotation
         End Site
         {
          OFFSET 0.000000 -17.728500 0.000000
         }
        }
       }
      }
     }
    }
   }
  }
 }
 JOINT RightHip
 {
  OFFSET -7.771700 -0.012900 -0.001300
  CHANNELS 3 Yrotation Xrotation Zrotation
  JOINT RightKnee
  {
   OFFSET 0.000000 -40.869800 0.001200
   CHANNELS 3 Yrotation Xrotation Zrotation
   JOINT RightAnkle
   {
    OFFSET 0.000000 -39.717900 0.002100
    CHANNELS 3 Yrotation Xrotation Zrotation
    JOINT RightToe
    {
     OFFSET 0.000000 -4.965400 11.033500
     CHANNELS 3 Yrotation Xrotation Zrotation
     End Site
     {
      OFFSET 0.000000 -1.423100 5.872300
     }
    }
   }
  }
 }
 JOINT LeftHip
 {
  OFFSET 7.771700 -0.012900 -0.001300
  CHANNELS 3 Yrotation Xrotation Zrotation
  JOINT LeftKnee
  {
   OFFSET 0.000000 -40.869800 0.001200
   CHANNELS 3 Yrotation Xrotation Zrotation
   JOINT LeftAnkle
   {
    OFFSET 0.000000 -39.717900 0.002100
    CHANNELS 3 Yrotation Xrotation Zrotation
    JOINT LeftToe
    {
     OFFSET 0.000000 -4.965400 11.033500
     CHANNELS 3 Yrotation Xrotation Zrotation
     End Site
     {
      OFFSET 0.000000 -1.423100 5.872300
     }
    }
   }
  }
 }
}
MOTION
Frames: 16
Frame Time: 0.008333
-126.347442 46.594864 -43.303028 173.321332 -32.400757 -2.947839 1.189970 18.366147 2.295104 0.075412 2.051626 0.214794 0.113677 3.416830 0.373720 0.737519 15.901916 1.838345 1.221964 15.794681 -1.336006 2.773108 -6.456820 -3.134860 -1.142048 0.503095 -1.076186 5.630232 -5.350534 -16.634952 -44.930126 -58.273361 91.754032 -1.816760 0.966615 -11.601337 -0.357840 0.207735 1.824467 -6.242390 -4.816024 12.718830 53.228330 -56.865737 -95.280043 2.290380 10.831119 11.673213 -5.899179 -54.018667 -2.188561 -153.657217 76.045559 -143.883817 -9.200598 -17.730847 -5.732329 -0.115674 -0.961906 -0.084001 1.903979 -57.023028 13.983666 -109.617681 82.754511 -114.065578 2.987774 -5.145505 5.937492 0.469080 0.226239 0.097581
-126.289272 46.609877 -43.350286 173.445016 -32.408897 -2.885910 1.033855 18.394471 2.167264 0.063700 2.073842 0.223030 0.109925 3.432867 0.370782 0.716272 15.936580 1.817787 1.227394 15.749032 -1.418022 2.810621 -6.533743 -3.255750 -1.103940 0.491894 -1.081518 5.805015 -5.433735 -16.707278 -44.981692 -58.455413 91.819839 -1.688134 1.086028 -11.291218 -0.349702 0.160807 1.809445 -6.467592 -4.750469 12.731259 53.185239 -57.400860 -95.163592 2.139386 10.869766 11.536681 -5.896624 -54.059140 -2.441949 -154.122683 76.066913 -144.371304 -9.248467 -17.670359 -5.776968 -0.053977 -0.854260 -0.055196 1.907120 -56.976853 13.825069 -109.608651 82.745674 -114.062453 3.134237 -5.134999 5.951986 0.334432 0.178771 0.030390
-126.221518 46.627991 -43.394067 173.544629 -32.403831 -2.870115 0.908942 18.426699 2.110461 0.047296 2.113109 0.236953 0.117636 3.415285 0.351025 0.656836 16.019789 1.793966 1.266235 15.653631 -1.496433 2.847021 -6.606605 -3.357746 -1.029330 0.436224 -1.091901 5.977363 -5.533034 -16.787129 -45.004292 -58.642793 91.878121 -1.546447 1.232136 -10.960833 -0.305065 0.063302 1.784679 -6.690431 -4.687032 12.738924 53.148950 -57.924422 -95.041824 1.993241 10.900182 11.407969 -5.904181 -54.090525 -2.588629 -154.599289 76.120422 -144.851033 -9.337191 -17.563781 -5.818663 0.001064 -0.780659 -0.016454 1.828712 -56.946751 13.781414 -109.607435 82.738477 -114.070254 3.238968 -5.150796 5.961707 0.239201 0.157270 -0.009296
-126.157525 46.647281 -43.433175 173.606387 -32.376051 -2.830305 0.816018 18.437696 2.051886 0.057497 2.088903 0.218776 0.099749 3.456673 0.363522 0.619125 16.052843 1.771860 1.258152 15.628429 -1.584313 2.898551 -6.696752 -3.420736 -0.978247 0.411729 -1.097670 6.142293 -5.622498 -16.868005 -44.989376 -58.815189 91.919729 -1.391318 1.401712 -10.603955 -0.315186 0.051910 1.756150 -6.875305 -4.664745 12.755418 53.110271 -58.432395 -94.909304 1.846723 10.937690 11.289800 -5.854905 -54.163169 -2.778461 -154.984228 76.136432 -145.244082 -9.287479 -17.378159 -5.880294 0.007358 -0.763603 0.018005 1.779151 -56.938117 13.725367 -109.665451 82.733391 -114.120814 3.338996 -5.161934 5.976167 0.153469 0.124419 -0.075178
-126.089923 46.671731 -43.472315 173.648368 -32.374291 -2.829793 0.757789 18.472378 2.045983 0.054458 2.094250 0.216749 0.071495 3.504623 0.371339 0.623005 16.010656 1.737366 1.279088 15.592897 -1.602984 2.900772 -6.727112 -3.502380 -0.947712 0.387729 -1.103054 6.296975 -5.680729 -16.942654 -44.940622 -58.963307 91.943279 -1.221964 1.585297 -10.225675 -0.347132 0.087155 1.732472 -7.048152 -4.661045 12.773485 53.062045 -58.926734 -94.767689 1.703244 10.987302 11.184238 -5.809604 -54.200446 -2.908148 -155.355080 76.154743 -145.599156 -9.228537 -17.120809 -5.976606 0.013476 -0.797534 0.072657 1.657500 -56.906379 13.759802 -109.787396 82.724335 -114.205330 3.392862 -5.193616 5.901883 0.122212 0.111824 -0.084743
-126.028280 46.693420 -43.501245 173.651334 -32.324727 -2.817502 0.730783 18.455311 2.040357 0.051799 2.098135 0.215499 0.068597 3.503064 0.363785 0.631800 15.990981 1.728242 1.255335 15.605127 -1.630359 2.918768 -6.767862 -3.549279 -0.948377 0.442788 -1.095072 6.452007 -5.788032 -17.029421 -44.864498 -59.098638 91.956278 -1.045373 1.774356 -9.841091 -0.435321 0.208455 1.704517 -7.169367 -4.723926 12.813104 53.009107 -59.414217 -94.627119 1.568507 11.056463 11.091583 -5.721957 -54.282887 -3.011334 -155.944358 76.270957 -146.183225 -9.272351 -16.768489 -6.080200 0.003231 -0.846712 0.141882 1.545289 -56.923463 13.818214 -109.818125 82.719061 -114.226649 3.484014 -5.197267 5.849665 0.054042 0.072428 -0.077683
-125.975264 46.717706 -43.530069 173.669558 -32.297475 -2.805514 0.689075 18.455006 2.022491 0.033193 2.123278 0.216933 0.093472 3.467845 0.352122 0.602905 16.020167 1.719000 1.259632 15.584567 -1.656300 2.929908 -6.795019 -3.572597 -0.945565 0.501793 -1.086924 6.622351 -5.922223 -17.114989 -44.760167 -59.230891 91.962312 -0.895285 1.955614 -9.485320 -0.447658 0.241622 1.690473 -7.317856 -4.747139 12.836298 52.953405 -59.899975 -94.490327 1.450463 11.142650 11.012570 -5.607510 -54.337615 -3.145442 -156.450955 76.359306 -146.667200 -9.303784 -16.428006 -6.226799 0.000097 -0.882254 0.234590 1.429652 -56.917450 13.863134 -109.829487 82.719792 -114.244914 3.545371 -5.209087 5.802727 0.021698 0.052867 -0.079376
-125.930146 46.741986 -43.555626 173.717896 -32.272230 -2.810505 0.608666 18.468893 1.998962 0.046358 2.106499 0.212127 0.101386 3.462446 0.348223 0.546689 16.074112 1.706200 1.262022 15.563568 -1.677320 2.970741 -6.837811 -3.590340 -0.901987 0.467296 -1.087377 6.773506 -5.975625 -17.176337 -44.624637 -59.355373 91.951285 -0.837947 2.099702 -9.245195 -0.395531 0.193725 1.682533 -7.482570 -4.728604 12.847547 52.891238 -60.378694 -94.349152 1.364550 11.205697 10.978366 -5.509417 -54.378970 -3.280019 -156.856707 76.414939 -147.033879 -9.329672 -16.204762 -6.389734 0.001178 -0.828175 0.323571 1.290493 -56.910397 13.904186 -109.849784 82.729175 -114.283876 3.612473 -5.225963 5.783621 -0.027327 0.039392 -0.089625
-125.893999 46.764175 -43.576014 173.738411 -32.237052 -2.796227 0.564349 18.448701 1.972077 0.044923 2.109725 0.211761 0.097953 3.468409 0.346092 0.536275 16.084074 1.702325 1.260613 15.561285 -1.678718 2.993339 -6.864441 -3.610514 -0.883145 0.448094 -1.093712 6.917400 -5.994049 -17.224636 -44.460252 -59.414865 91.901996 -0.929868 2.170903 -9.243470 -0.417815 0.225915 1.676832 -7.590327 -4.758961 12.857736 52.840489 -60.832307 -94.217622 1.331254 11.193485 11.057757 -5.385848 -54.422621 -3.400647 -157.267596 76.465178 -147.408636 -9.398944 -16.060455 -6.504136 0.009520 -0.734017 0.371034 1.249494 -56.926575 13.899566 -109.837685 82.731230 -114.280503 3.663427 -5.213934 5.797088 -0.072240 0.010303 -0.122193
-125.862293 46.786990 -43.595676 173.736162 -32.225883 -2.787626 0.554928 18.444018 1.964455 0.044218 2.111419 0.211707 0.087062 3.482160 0.347257 0.526886 16.095698 1.704300 1.257316 15.564960 -1.674147 2.962041 -6.840233 -3.589116 -0.865635 0.424098 -1.105009 7.072977 -5.984551 -17.265899 -44.284069 -59.317149 91.813204 -1.148158 2.157593 -9.534436 -0.441835 0.249385 1.669094 -7.685390 -4.773023 12.860542 52.840316 -61.225634 -94.136094 1.354048 11.110804 11.276986 -5.321239 -54.435709 -3.442661 -157.750719 76.525536 -147.896577 -9.493274 -15.982956 -6.544291 0.006750 -0.613379 0.359459 1.203631 -56.921604 13.915163 -109.928572 82.724351 -114.347781 3.676627 -5.219378 5.790691 -0.064747 -0.009187 -0.161221
-125.830038 46.808511 -43.611320 173.707986 -32.218265 -2.812068 0.582979 18.441113 2.006544 0.043570 2.113130 0.211888 0.076343 3.494962 0.351572 0.530670 16.092510 1.700094 1.243821 15.593370 -1.651308 2.941935 -6.814610 -3.556896 -0.869084 0.418657 -1.107556 7.249315 -5.950355 -17.298030 -44.132495 -59.063604 91.718515 -1.390747 2.070347 -10.034811 -0.474923 0.282553 1.670235 -7.767305 -4.767246 12.858751 52.888997 -61.514588 -94.100493 1.405509 11.014716 11.561306 -5.241213 -54.442559 -3.420703 -157.921062 76.539614 -148.031826 -9.576589 -15.934409 -6.558274 0.047942 -0.501888 0.337295 1.061639 -56.912335 14.028627 -110.126704 82.718994 -114.511490 3.711072 -5.246321 5.707924 -0.065006 -0.020321 -0.148751
-125.817176 46.827077 -43.624878 173.714885 -32.203252 -2.778928 0.531620 18.463219 1.977761 0.048545 2.108471 0.204813 0.083319 3.489387 0.346566 0.533968 16.086445 1.695412 1.231738 15.630803 -1.617090 2.929558 -6.791064 -3.523131 -0.868907 0.411177 -1.105417 7.422656 -5.889507 -17.316830 -44.041060 -58.763903 91.648837 -1.568754 1.938637 -10.589272 -0.507856 0.308684 1.680918 -7.822010 -4.746562 12.845602 52.926720 -61.682696 -94.055356 1.451703 10.932143 11.791893 -5.138138 -54.465673 -3.493241 -158.142397 76.554299 -148.292293 -9.637730 -15.912119 -6.499480 0.039011 -0.388070 0.287950 0.976318 -56.904919 14.004441 -110.339590 82.766362 -114.743423 3.769134 -5.244884 5.667615 -0.110418 -0.048623 -0.147733
-125.808318 46.844527 -43.636674 173.719784 -32.196089 -2.756280 0.511567 18.467506 1.956833 0.046048 2.109666 0.202346 0.062966 3.534918 0.372111 0.510270 16.110258 1.699038 1.243685 15.616935 -1.613439 2.914094 -6.757080 -3.477525 -0.834253 0.346995 -1.142516 7.576701 -5.813974 -17.315521 -44.003719 -58.521787 91.593220 -1.676389 1.808168 -11.078195 -0.502637 0.287585 1.665976 -7.846342 -4.741309 12.817741 52.906589 -61.760270 -93.970177 1.487929 10.872032 11.890171 -5.067084 -54.479606 -3.544378 -158.175739 76.541761 -148.378503 -9.621651 -15.892803 -6.443825 0.015694 -0.295685 0.241916 0.975343 -56.900894 13.950112 -110.488503 82.784695 -114.870995 3.789256 -5.248708 5.644863 -0.127009 -0.070496 -0.123413
-125.804256 46.858874 -43.644313 173.717135 -32.175958 -2.734459 0.500636 18.459466 1.944168 0.033491 2.158666 0.238302 0.064619 3.519811 0.356406 0.488964 16.124246 1.703653 1.248984 15.593687 -1.630187 2.885885 -6.677100 -3.378838 -0.812732 0.332000 -1.166227 7.696545 -5.754628 -17.306407 -43.978886 -58.362419 91.523168 -1.747677 1.710423 -11.448653 -0.488235 0.244378 1.634854 -7.861384 -4.701846 12.800972 52.832912 -61.791058 -93.860914 1.520818 10.867868 11.848004 -4.962314 -54.515452 -3.615610 -158.193928 76.518390 -148.416057 -9.614293 -15.860315 -6.403013 0.009563 -0.236358 0.206805 0.992356 -56.912947 13.896828 -110.593012 82.794592 -114.950351 3.785848 -5.254318 5.627845 -0.114846 -0.080773 -0.119748
-125.804759 46.869906 -43.648479 173.707754 -32.144237 -2.711312 0.498617 18.457289 1.947081 0.028202 2.163002 0.239481 0.061152 3.523827 0.358698 0.473612 16.132061 1.711482 1.242540 15.642504 -1.577377 2.870265 -6.638518 -3.329620 -0.798037 0.340846 -1.183775 7.773841 -5.702578 -17.288294 -43.945224 -58.260714 91.441029 -1.795861 1.654569 -11.692587 -0.484117 0.233859 1.620631 -7.836035 -4.698058 12.774200 52.731941 -61.796688 -93.751753 1.538769 10.931381 11.695684 -4.801671 -54.570299 -3.708989 -158.186226 76.485980 -148.399111 -9.635025 -15.813285 -6.374420 0.012495 -0.203568 0.196868 1.023444 -56.940040 13.832553 -110.703877 82.809924 -115.033900 3.787193 -5.262327 5.627253 -0.107765 -0.084957 -0.134142
-125.808650 46.878626 -43.652180 173.700307 -32.119170 -2.693209 0.483195 18.497189 1.972414 0.032684 2.133134 0.218281 0.058414 3.526735 0.361711 0.469463 16.116931 1.701134 1.237397 15.716327 -1.492064 2.855261 -6.592118 -3.275100 -0.799317 0.382416 -1.178824 7.810236 -5.663434 -17.272515 -43.911009 -58.196524 91.371028 -1.820935 1.638220 -11.828619 -0.483361 0.268597 1.667738 -7.808690 -4.746295 12.712067 52.613001 -61.773541 -93.613605 1.529784 11.042959 11.463668 -4.745541 -54.598007 -3.741556 -158.172876 76.481860 -148.413466 -9.631499 -15.788176 -6.385733 -0.007432 -0.188220 0.227477 1.054190 -56.962459 13.766186 -110.839233 82.830476 -115.141187 3.797094 -5.271883 5.614739 -0.107985 -0.086419 -0.144443
